<?xml version="1.0" encoding="UTF-8"?>
<svg version="1.1" xmlns="http://www.w3.org/2000/svg" width="512" height="512">
<path d="M0 0 C168.96 0 337.92 0 512 0 C512 168.96 512 337.92 512 512 C343.04 512 174.08 512 0 512 C0 343.04 0 174.08 0 0 Z " fill="#000000" transform="translate(0,0)"/>
<path d="M0 0 C8.57488258 3.78074368 15.16656299 12.10575197 21.67773438 18.69677734 C24.95400431 21.9994008 28.33341706 25.0834045 31.875 28.09375 C35.24931102 31.12070547 38.39347924 34.37359656 41.578125 37.59765625 C44.88454336 40.92912323 48.29339694 44.04992183 51.87109375 47.08984375 C55.26695856 50.13677567 58.43673634 53.40742053 61.63305664 56.66137695 C64.28792602 59.34842143 66.96221883 61.86184354 69.9375 64.1875 C74.85439528 68.22680762 78.36575222 74.76900534 79.30859375 81.05859375 C79.72137271 88.67624186 77.67995985 94.95818407 73 101 C68.5992342 105.76655354 63.72172224 110.03468089 58.86474609 114.32568359 C56.48415402 116.46316729 54.23444169 118.71096463 52 121 C49.47938575 123.55858961 46.91934663 125.98125002 44.1875 128.3125 C40.61101134 131.37500227 37.30610813 134.65280945 34 138 C30.77602796 141.26383568 27.56482074 144.46830208 24.0625 147.4375 C19.67315707 151.1629087 15.67712993 155.26994358 11.65454102 159.38256836 C8.58993043 162.49569767 5.48315285 165.34401518 2 168 C-1.92990558 166.67233498 -4.26803246 165.08357519 -7.14453125 162.11328125 C-8.28438477 160.9521582 -8.28438477 160.9521582 -9.44726562 159.76757812 C-10.61805664 158.55231445 -10.61805664 158.55231445 -11.8125 157.3125 C-13.35815009 155.72279953 -14.90630574 154.13553112 -16.45703125 152.55078125 C-17.20807129 151.7820166 -17.95911133 151.01325195 -18.73291016 150.22119141 C-21.54144967 147.46951227 -24.51112147 144.96106273 -27.57299805 142.49682617 C-29 141 -29 141 -29 138 C-27.3125 135.984375 -27.3125 135.984375 -25 133.75 C-23.75476563 132.5434375 -23.75476563 132.5434375 -22.484375 131.3125 C-20.44000394 129.40956341 -18.37250763 127.56410909 -16.25 125.75 C-12.47267514 122.51660992 -8.99318373 119.03298642 -5.5 115.5 C-2.10994936 112.07154063 1.25194084 108.67739194 4.9375 105.5625 C8.88073823 102.15581471 12.71888311 98.64756247 16.5 95.0625 C17.13671631 94.48894775 17.77343262 93.91539551 18.42944336 93.32446289 C21.55036518 90.31255403 22.87793829 88.46536026 24 84.1875 C23.44077167 77.95255511 17.79546644 73.94036795 13.5 69.9375 C12.613125 69.07833984 11.72625 68.21917969 10.8125 67.33398438 C6.26310403 62.95519076 1.59443032 58.74383407 -3.18164062 54.61547852 C-6.08392304 52.03701413 -8.78822911 49.27588786 -11.5 46.5 C-15.65944798 42.28217169 -19.88898493 38.26655294 -24.41015625 34.43359375 C-26.55733007 32.49744439 -28.30280464 30.33364362 -30 28 C-26.5547403 24.45784237 -23.0768334 21.01652382 -19.3125 17.8125 C-15.02169693 14.12745736 -11.07379914 10.13044719 -7.12426758 6.0871582 C-4.83915566 3.76304224 -2.72386358 1.81590905 0 0 Z " fill="#00FD9A" transform="translate(366,196)"/>
<path d="M0 0 C7.11386097 4.27129309 12.89495054 10.46466258 18.37109375 16.609375 C26.89747417 26.0310461 36.04645503 34.86456184 45.0625 43.8125 C48.63317145 47.35641053 52.20039409 50.90374218 55.765625 54.453125 C56.56993958 55.24914124 57.37425415 56.04515747 58.20294189 56.86529541 C69.53928179 68.15267268 69.53928179 68.15267268 73.8125 74.5625 C73.30388428 75.06587891 72.79526855 75.56925781 72.27124023 76.08789062 C69.92809272 78.41001978 67.58903398 80.7362277 65.25 83.0625 C64.45013672 83.85398437 63.65027344 84.64546875 62.82617188 85.4609375 C58.47868066 89.79068385 54.28395806 94.18156369 50.30493164 98.85351562 C48.86966672 100.49703835 47.37335144 102.03869362 45.8125 103.5625 C41.73539591 101.94236997 39.00336438 99.025119 35.98046875 95.9609375 C35.42563309 95.40564362 34.87079742 94.85034973 34.29914856 94.27822876 C33.12601211 93.10207558 31.95530271 91.92349724 30.78686523 90.74267578 C29.02174266 88.95946546 27.24891977 87.18421976 25.47460938 85.41015625 C20.26999612 80.18882754 15.1549865 74.95265764 10.36694336 69.34179688 C7.55802825 66.12656626 4.52740021 63.13288957 1.5 60.125 C0.88060547 59.50173828 0.26121094 58.87847656 -0.37695312 58.23632812 C-0.97056641 57.64400391 -1.56417969 57.05167969 -2.17578125 56.44140625 C-2.70727783 55.9110376 -3.23877441 55.38066895 -3.78637695 54.83422852 C-5.96726617 52.85474569 -7.35116794 52.53631313 -10.3125 52.0625 C-19.5079982 53.2490159 -27.55068074 64.77271578 -33.94213867 71.18676758 C-35.74612085 72.99610933 -37.55538665 74.80004319 -39.36523438 76.60351562 C-44.67703588 81.9125294 -49.91655745 87.22054443 -54.78930664 92.94165039 C-56.79087323 95.26195781 -58.94235168 97.41343089 -61.125 99.5625 C-61.89714844 100.325625 -62.66929687 101.08875 -63.46484375 101.875 C-64.03332031 102.431875 -64.60179687 102.98875 -65.1875 103.5625 C-68.41798748 102.1425745 -70.56992488 100.42630613 -73.05078125 97.9296875 C-73.77330078 97.20523438 -74.49582031 96.48078125 -75.24023438 95.734375 C-75.98595703 94.97640625 -76.73167969 94.2184375 -77.5 93.4375 C-78.23412109 92.70273437 -78.96824219 91.96796875 -79.72460938 91.2109375 C-92.30296395 78.53213466 -92.30296395 78.53213466 -95.1875 72.5625 C-94.66433701 72.04155762 -94.14117401 71.52061523 -93.60215759 70.98388672 C-88.64244143 66.04431055 -83.6852117 61.10225519 -78.73067379 56.15748596 C-76.18417306 53.61617641 -73.63676235 51.07579395 -71.0871582 48.53759766 C-68.62101795 46.08242136 -66.15741699 43.62472208 -63.695467 41.16534424 C-62.31089044 39.78348095 -60.92377877 38.40415925 -59.53660583 37.02490234 C-55.0782958 32.56698371 -50.76503002 28.05238986 -46.65715027 23.26913452 C-43.39527018 19.48126929 -39.87507553 15.94083271 -36.375 12.375 C-35.63185547 11.59447266 -34.88871094 10.81394531 -34.12304688 10.00976562 C-24.94052643 0.68488052 -13.12968069 -5.72931521 0 0 Z " fill="#00FD9A" transform="translate(265.1875,318.4375)"/>
<path d="M0 0 C1.80597656 -0.05027344 1.80597656 -0.05027344 3.6484375 -0.1015625 C13.4429339 0.94154949 20.86759398 9.31872824 27.3125 16 C28.51616211 17.21816406 28.51616211 17.21816406 29.74414062 18.4609375 C33.20916689 21.99102141 36.57770743 25.56014707 39.80224609 29.31103516 C44.0765437 34.21839924 48.66356161 38.78888506 53.27734375 43.375 C54.17747696 44.27371826 55.07761017 45.17243652 56.00502014 46.09838867 C58.37211263 48.46086575 60.74134639 50.82115112 63.11169434 53.18035889 C65.54050742 55.59885181 67.96641103 58.02025946 70.39257812 60.44140625 C75.13407369 65.17192954 79.87841898 69.89957973 84.625 74.625 C82.69639535 78.84176405 79.79529862 81.70821791 76.5234375 84.921875 C75.92697418 85.51550842 75.33051086 86.10914185 74.7159729 86.72076416 C72.8153019 88.61026627 70.90778526 90.49268392 69 92.375 C67.70787532 93.65709065 66.41620324 94.93963761 65.125 96.22265625 C61.96355521 99.36208432 58.7959539 102.49517801 55.625 105.625 C54.52117226 104.68716762 53.41854379 103.7479236 52.31640625 102.80810547 C51.70224854 102.28521942 51.08809082 101.76233337 50.45532227 101.22360229 C47.73058465 98.84381821 45.17186657 96.31729598 42.625 93.75 C42.14289063 93.27175781 41.66078125 92.79351562 41.1640625 92.30078125 C38.49927861 89.62894767 35.97123163 86.88824076 33.51953125 84.01953125 C28.91702272 78.70923668 23.92866344 73.77883523 18.95288086 68.82250977 C17.29487045 67.16992818 15.64236024 65.51197801 13.99023438 63.85351562 C12.93521689 62.79915781 11.87988986 61.74510962 10.82421875 60.69140625 C10.33153 60.19669327 9.83884125 59.70198029 9.33122253 59.192276 C6.16328412 56.04615252 4.56281306 54.79007905 0.10766602 54.00585938 C-5.22822945 54.09889373 -7.88540934 57.21500166 -11.50538635 60.82336426 C-12.36083542 61.71696655 -13.21628448 62.61056885 -14.09765625 63.53125 C-15.00196884 64.4445105 -15.90628143 65.357771 -16.83799744 66.29870605 C-19.23895027 68.72445762 -21.61454462 71.17365171 -23.98590088 73.6282959 C-26.38168443 76.0985227 -28.80274618 78.5436992 -31.22070312 80.9921875 C-41.91060366 91.74291198 -41.91060366 91.74291198 -51.79026794 103.22546387 C-53.375 104.625 -53.375 104.625 -57.375 104.625 C-59.48828125 102.9375 -59.48828125 102.9375 -61.6875 100.625 C-62.87666016 99.38363281 -62.87666016 99.38363281 -64.08984375 98.1171875 C-66.58399292 95.39707268 -69.00225924 92.62324807 -71.40234375 89.8203125 C-75.52567658 85.23157379 -79.97844902 80.94999771 -84.375 76.625 C-83.0493093 73.68257612 -81.61507627 71.62239114 -79.3215332 69.36035156 C-78.70361404 68.74581116 -78.08569489 68.13127075 -77.4490509 67.49810791 C-76.44753242 66.51677887 -76.44753242 66.51677887 -75.42578125 65.515625 C-74.73493942 64.82998474 -74.0440976 64.14434448 -73.33232117 63.43792725 C-71.12207862 61.24547923 -68.90529008 59.0598109 -66.6875 56.875 C-64.48838697 54.7036688 -62.29080634 52.53084336 -60.09623718 50.35491943 C-58.73221767 49.00297544 -57.36553606 47.65370979 -55.99568176 46.30767822 C-52.17617312 42.52753469 -48.58071525 38.62571854 -45.07044983 34.55767822 C-42.4351316 31.55362463 -39.65382786 28.70315089 -36.84765625 25.859375 C-36.25504501 25.25869202 -35.66243378 24.65800903 -35.05186462 24.03912354 C-33.81052273 22.78408576 -32.56771682 21.53049442 -31.32348633 20.27832031 C-30.06346069 19.00671386 -28.8079306 17.73063739 -27.55688477 16.45019531 C-25.72613243 14.57660016 -23.88232245 12.71677372 -22.03515625 10.859375 C-21.48594009 10.29265076 -20.93672394 9.72592651 -20.37086487 9.14202881 C-14.45767243 3.26102839 -8.47438951 0.05420718 0 0 Z " fill="#00FD9A" transform="translate(254.375,201.375)"/>
<path d="M0 0 C1.80597656 -0.05027344 1.80597656 -0.05027344 3.6484375 -0.1015625 C13.4429339 0.94154949 20.86759398 9.31872824 27.3125 16 C28.51616211 17.21816406 28.51616211 17.21816406 29.74414062 18.4609375 C33.20916689 21.99102141 36.57770743 25.56014707 39.80224609 29.31103516 C44.0765437 34.21839924 48.66356161 38.78888506 53.27734375 43.375 C54.17747696 44.27371826 55.07761017 45.17243652 56.00502014 46.09838867 C58.37211263 48.46086575 60.74134639 50.82115112 63.11169434 53.18035889 C65.54050742 55.59885181 67.96641103 58.02025946 70.39257812 60.44140625 C75.13407369 65.17192954 79.87841898 69.89957973 84.625 74.625 C82.69639535 78.84176405 79.79529862 81.70821791 76.5234375 84.921875 C75.92697418 85.51550842 75.33051086 86.10914185 74.7159729 86.72076416 C72.8153019 88.61026627 70.90778526 90.49268392 69 92.375 C67.70787532 93.65709065 66.41620324 94.93963761 65.125 96.22265625 C61.96355521 99.36208432 58.7959539 102.49517801 55.625 105.625 C54.52117226 104.68716762 53.41854379 103.7479236 52.31640625 102.80810547 C51.70224854 102.28521942 51.08809082 101.76233337 50.45532227 101.22360229 C47.73058465 98.84381821 45.17186657 96.31729598 42.625 93.75 C42.14289063 93.27175781 41.66078125 92.79351562 41.1640625 92.30078125 C38.49927861 89.62894767 35.97123163 86.88824076 33.51953125 84.01953125 C28.91702272 78.70923668 23.92866344 73.77883523 18.95288086 68.82250977 C17.29487045 67.16992818 15.64236024 65.51197801 13.99023438 63.85351562 C12.93521689 62.79915781 11.87988986 61.74510962 10.82421875 60.69140625 C10.33153 60.19669327 9.83884125 59.70198029 9.33122253 59.192276 C6.16328412 56.04615252 4.56281306 54.79007905 0.10766602 54.00585938 C-5.22822945 54.09889373 -7.88540934 57.21500166 -11.50538635 60.82336426 C-12.36083542 61.71696655 -13.21628448 62.61056885 -14.09765625 63.53125 C-15.00196884 64.4445105 -15.90628143 65.357771 -16.83799744 66.29870605 C-19.23895027 68.72445762 -21.61454462 71.17365171 -23.98590088 73.6282959 C-26.38168443 76.0985227 -28.80274618 78.5436992 -31.22070312 80.9921875 C-41.91060366 91.74291198 -41.91060366 91.74291198 -51.79026794 103.22546387 C-53.375 104.625 -53.375 104.625 -57.375 104.625 C-59.48828125 102.9375 -59.48828125 102.9375 -61.6875 100.625 C-62.87666016 99.38363281 -62.87666016 99.38363281 -64.08984375 98.1171875 C-66.58399292 95.39707268 -69.00225924 92.62324807 -71.40234375 89.8203125 C-75.52567658 85.23157379 -79.97844902 80.94999771 -84.375 76.625 C-83.0493093 73.68257612 -81.61507627 71.62239114 -79.3215332 69.36035156 C-78.70361404 68.74581116 -78.08569489 68.13127075 -77.4490509 67.49810791 C-76.44753242 66.51677887 -76.44753242 66.51677887 -75.42578125 65.515625 C-74.73493942 64.82998474 -74.0440976 64.14434448 -73.33232117 63.43792725 C-71.12207862 61.24547923 -68.90529008 59.0598109 -66.6875 56.875 C-64.48838697 54.7036688 -62.29080634 52.53084336 -60.09623718 50.35491943 C-58.73221767 49.00297544 -57.36553606 47.65370979 -55.99568176 46.30767822 C-52.17617312 42.52753469 -48.58071525 38.62571854 -45.07044983 34.55767822 C-42.4351316 31.55362463 -39.65382786 28.70315089 -36.84765625 25.859375 C-36.25504501 25.25869202 -35.66243378 24.65800903 -35.05186462 24.03912354 C-33.81052273 22.78408576 -32.56771682 21.53049442 -31.32348633 20.27832031 C-30.06346069 19.00671386 -28.8079306 17.73063739 -27.55688477 16.45019531 C-25.72613243 14.57660016 -23.88232245 12.71677372 -22.03515625 10.859375 C-21.48594009 10.29265076 -20.93672394 9.72592651 -20.37086487 9.14202881 C-14.45767243 3.26102839 -8.47438951 0.05420718 0 0 Z " fill="#00FD9A" transform="translate(254.375,89.375)"/>
<path d="M0 0 C4.4266071 3.71015527 8.64214876 7.52148293 12.71484375 11.6171875 C13.21544815 12.11920685 13.71605255 12.6212262 14.23182678 13.13845825 C15.80278598 14.71493671 17.37019877 16.29488573 18.9375 17.875 C20.01343727 18.95596274 21.08960731 20.03669383 22.16601562 21.1171875 C24.78003292 23.74212641 27.39088596 26.37018628 30 29 C28.01753123 33.38698884 24.89312817 36.06745625 21.375 39.25 C12.84252038 47.16794662 4.45308364 55.23343886 -3.84759521 63.39367676 C-5.32238987 64.83778801 -6.80356386 66.27541346 -8.29107666 67.7064209 C-10.41025402 69.74733772 -12.50587867 71.80996332 -14.59765625 73.87890625 C-15.24375351 74.49204178 -15.88985077 75.10517731 -16.55552673 75.7368927 C-19.44918595 78.64372287 -20.85231231 80.39259079 -21.83764648 84.44506836 C-20.61972053 89.61388789 -17.70158889 92.32500722 -14 96 C-13.38891388 96.63382599 -12.77782776 97.26765198 -12.14822388 97.92068481 C-10.24521687 99.88607105 -8.31630743 101.82244163 -6.37890625 103.75390625 C-5.67531479 104.45845444 -4.97172333 105.16300262 -4.24681091 105.88890076 C-2.76985352 107.36653367 -1.29165258 108.84292457 0.18774414 110.31811523 C2.43165085 112.55666481 4.67016704 114.80050473 6.90820312 117.04492188 C8.35384618 118.48990404 9.79979945 119.93457592 11.24609375 121.37890625 C12.23397133 122.36982018 12.23397133 122.36982018 13.24180603 123.38075256 C17.10988955 127.22970969 21.08458134 130.89412684 25.22962952 134.44371033 C25.81385178 134.95728592 26.39807404 135.47086151 27 136 C27.85705788 136.74903343 27.85705788 136.74903343 28.73143005 137.51319885 C30 139 30 139 30 142 C28.63671875 143.43969727 28.63671875 143.43969727 26.6875 145.00390625 C21.1337297 149.65776007 16.0963273 154.79487422 11 159.9375 C10.02497614 160.9175531 9.0497172 161.8973724 8.07421875 162.87695312 C5.71383382 165.24902313 3.35583095 167.6234086 1 170 C-4.13542745 165.70713925 -8.91946997 161.20209017 -13.62109375 156.44140625 C-14.32468521 155.73402817 -15.02827667 155.02665009 -15.75318909 154.2978363 C-18.73326658 151.30156801 -21.70732249 148.29934942 -24.68188477 145.29760742 C-26.86784232 143.09343156 -29.05689934 140.89236657 -31.24609375 138.69140625 C-31.9046788 138.02452286 -32.56326385 137.35763947 -33.24180603 136.67054749 C-37.07458962 132.81790382 -41.02470751 129.17601613 -45.13844299 125.62556458 C-49.3344887 121.961458 -53.25734804 118.00684549 -57.21044922 114.0847168 C-58.23955233 113.06720048 -59.27312401 112.05418448 -60.31103516 111.0456543 C-68.0729991 103.50221687 -74.94593275 96.40679773 -75.375 84.9375 C-75.42398438 84.05964844 -75.47296875 83.18179688 -75.5234375 82.27734375 C-73.54863268 69.91270757 -63.72265864 62.11065531 -55.1875 53.8125 C-53.83157933 52.47312088 -52.47675266 51.13263329 -51.12304688 49.79101562 C-41.24831447 40.048834 -41.24831447 40.048834 -36.03833008 35.54931641 C-31.91794869 31.97661069 -28.05868133 28.18642694 -24.21875 24.31640625 C-23.17031921 23.26585304 -23.17031921 23.26585304 -22.10070801 22.19407654 C-19.89808461 19.98591542 -17.69898919 17.77427963 -15.5 15.5625 C-13.99502492 14.05250186 -12.48981865 12.5427341 -10.984375 11.03320312 C-7.32024171 7.35812359 -3.6592652 3.67992644 0 0 Z " fill="#00FD9B" transform="translate(139,195)"/>
</svg>
